<svg width="20" height="20" viewBox="0 0 20 20" fill="none" xmlns="http://www.w3.org/2000/svg">
<mask id="mask0_2_1434" style="mask-type:alpha" maskUnits="userSpaceOnUse" x="0" y="0" width="20" height="20">
<rect width="20" height="20" fill="#D9D9D9"/>
</mask>
<g mask="url(#mask0_2_1434)">
<path d="M9.4177 5.39345L7.25104 3.23487C6.98715 2.97196 6.92812 2.67101 7.07395 2.332C7.21979 1.99299 7.4802 1.82349 7.8552 1.82349H12.1469C12.5219 1.82349 12.7823 1.99299 12.9281 2.332C13.074 2.67101 13.0149 2.97196 12.751 3.23487L10.5844 5.39345C10.501 5.47647 10.4108 5.53874 10.3135 5.58025C10.2163 5.62176 10.1121 5.64252 10.001 5.64252C9.88993 5.64252 9.78576 5.62176 9.68854 5.58025C9.59132 5.53874 9.50104 5.47647 9.4177 5.39345Z" fill="black"/>
</g>
</svg>
