<svg width="20" height="20" viewBox="0 0 20 20" fill="none" xmlns="http://www.w3.org/2000/svg">
<mask id="mask0_2_2235" style="mask-type:alpha" maskUnits="userSpaceOnUse" x="0" y="0" width="20" height="20">
<rect width="20" height="20" fill="#D9D9D9"/>
</mask>
<g mask="url(#mask0_2_2235)">
<path d="M9.4177 8.02602L7.25104 5.86744C6.98715 5.60453 6.92812 5.30357 7.07395 4.96457C7.21979 4.62556 7.4802 4.45605 7.8552 4.45605H12.1469C12.5219 4.45605 12.7823 4.62556 12.9281 4.96457C13.074 5.30357 13.0149 5.60453 12.751 5.86744L10.5844 8.02602C10.501 8.10904 10.4108 8.17131 10.3135 8.21282C10.2163 8.25433 10.1121 8.27508 10.001 8.27508C9.88993 8.27508 9.78576 8.25433 9.68854 8.21282C9.59132 8.17131 9.50104 8.10904 9.4177 8.02602Z" fill="white"/>
</g>
</svg>
