<svg width="141" height="20" viewBox="0 0 141 20" fill="none" xmlns="http://www.w3.org/2000/svg">
<path d="M58.0094 2.43908V8.40462H58.0661C59.0594 7.10408 60.4641 6.46794 62.3087 6.46794C63.1317 6.46794 63.8979 6.59517 64.6358 6.86376C65.3594 7.13235 66.0121 7.52817 66.5797 8.06535C67.1473 8.60253 67.5871 9.26694 67.9135 10.0727C68.2398 10.8785 68.3959 11.8115 68.3959 12.8576C68.3959 14.045 68.1831 15.1477 67.7432 16.1655C67.3033 17.1833 66.6223 18.0032 65.6999 18.6111C64.7776 19.2189 63.6283 19.5299 62.252 19.5299C60.2655 19.5299 58.8607 18.8938 58.0094 17.6357H57.9526V19.1907H54.1782V2.43908H58.0094ZM43.5505 6.11453C50.8721 6.11453 50.2478 13.9461 50.2478 13.9461H40.216C40.6275 15.5011 41.9755 16.533 43.8201 16.533C46.062 16.533 47.2681 15.1901 47.2681 15.1901L49.3965 17.3529C48.3039 18.4414 46.8282 19.431 43.7917 19.431C39.095 19.431 36.5977 16.3351 36.5977 13.0555C36.5977 9.77584 38.4707 6.11453 43.5505 6.11453ZM134.759 6.1004C137.909 6.1004 139.91 7.30199 139.91 7.30199L138.619 10.0586C134.419 7.89572 132.531 9.42244 132.531 10.1858C132.531 10.9492 133.284 11.0057 136.207 11.5429C139.13 12.0801 140.492 13.2958 140.492 15.2607C140.492 17.2257 138.803 19.3886 134.674 19.3886C130.545 19.3886 128.658 18.0739 128.658 18.0739L129.906 15.3314C133.142 17.3671 136.817 16.7168 136.817 15.5011C136.817 14.5822 135.596 14.3984 134.277 14.2429L133.709 14.1722C133.454 14.144 133.213 14.1157 132.971 14.0733C131.297 13.8047 128.814 12.9141 128.814 10.3554C128.814 7.79676 131.609 6.1004 134.759 6.1004ZM116.299 1.56263V11.6843L121.776 6.43967H126.246L120.811 11.6277L126.771 19.3603H122.329L118.257 14.0733L116.285 15.9534V19.3603H112.624V10.4615V1.56263H116.299ZM103.174 6.01558C105.771 6.01558 108.041 7.30198 109.304 9.23866L106.21 11.0481C105.629 9.94549 104.493 9.2104 103.174 9.2104C101.273 9.2104 99.7259 10.7795 99.7259 12.7021C99.7259 14.6387 101.273 16.1937 103.174 16.1937C104.423 16.1937 105.515 15.5152 106.125 14.4974L109.233 16.2644C107.956 18.1304 105.728 19.3744 103.174 19.3744C99.2151 19.3744 96.0083 16.3775 96.0083 12.6879C96.0083 9.01248 99.2151 6.01558 103.174 6.01558ZM86.1609 6.01558C90.1197 6.01558 93.3265 9.01248 93.3265 12.7021C93.3265 16.3917 90.1197 19.3886 86.1609 19.3886C82.2021 19.3886 78.9953 16.3917 78.9953 12.7021C78.9811 9.01248 82.2021 6.01558 86.1609 6.01558ZM21.0746 6.39726V19.2613H17.1016V6.39726H21.0746ZM13.5259 2.49563V5.71872H4.62925V9.98789H12.4901V13.1686H4.62925V19.2613H0.65625V2.49563H13.5259ZM29.5598 7.99466C29.5598 7.99466 30.9646 5.80353 33.8734 6.14281V9.73343C33.8734 9.73343 30.7092 8.92767 29.5598 12.179V19.2613H25.7713V6.39726H29.3896L29.5598 7.90985V7.99466ZM75.1926 1.50609V19.1765H71.1912V1.50609H75.1926ZM61.1452 9.28108C58.9458 9.28108 57.8533 10.6099 57.8533 13.2817C57.8533 14.2853 58.1371 15.1335 58.7046 15.8262C59.2722 16.5047 60.1236 16.8582 61.2587 16.8582C62.0249 16.8582 62.6351 16.6602 63.1175 16.2644C63.5857 15.8686 63.9263 15.388 64.1249 14.8084C64.3236 14.2429 64.4229 13.6633 64.4229 13.0979C64.4229 12.0094 64.1675 11.0905 63.6425 10.3696C63.1175 9.64862 62.2803 9.28108 61.1452 9.28108ZM86.1609 9.2104C84.2595 9.2104 82.7129 10.7795 82.7129 12.7021C82.7129 14.6387 84.2595 16.1937 86.1609 16.1937C88.0623 16.1937 89.6089 14.6246 89.6089 12.7021C89.5947 10.7654 88.0623 9.2104 86.1609 9.2104ZM43.6072 8.91353C41.6633 8.91353 40.5991 10.101 40.2302 11.656H46.7289C46.7005 11.246 46.0478 8.91353 43.6072 8.91353ZM19.0881 0.332764C20.3794 0.332764 21.4294 1.29404 21.4294 2.46736C21.4294 3.64067 20.3794 4.60194 19.0881 4.60194C17.7969 4.60194 16.7469 3.64067 16.7469 2.46736C16.7469 1.2799 17.7969 0.332764 19.0881 0.332764Z" fill="black"/>
</svg>
