<svg width="164" height="27" viewBox="0 0 164 27" fill="none" xmlns="http://www.w3.org/2000/svg">
<path d="M45.3383 10.0084C45.3383 10.5257 45.6116 10.9341 46.1581 11.2608C46.7047 11.5875 47.3333 11.8326 48.0985 12.0504C48.8364 12.2682 49.6016 12.486 50.3394 12.7038C51.0773 12.9217 51.7332 13.3301 52.2524 13.9563C52.7717 14.5553 53.045 15.3448 53.045 16.2978C53.045 17.5502 52.5531 18.5304 51.5966 19.2927C50.6401 20.0279 49.4103 20.409 47.9072 20.409C46.5681 20.409 45.4203 20.1095 44.4911 19.5378C43.5346 18.966 42.8514 18.1764 42.4688 17.2235L44.5184 16.0527C44.737 16.7062 45.147 17.2235 45.7482 17.6047C46.3494 17.9858 47.0873 18.1764 47.9072 18.1764C48.6997 18.1764 49.3283 18.0403 49.8475 17.7408C50.3668 17.4413 50.6127 16.9785 50.6127 16.325C50.6127 15.7805 50.3394 15.3721 49.8202 15.0453C49.2736 14.7186 48.6451 14.4464 47.9072 14.2285C47.1693 14.0107 46.4041 13.7929 45.6662 13.5479C44.9283 13.3028 44.2724 12.9217 43.7259 12.3499C43.1793 11.7781 42.9333 11.0158 42.9333 10.1173C42.9333 8.91932 43.3979 7.96638 44.2998 7.17681C45.229 6.41446 46.3768 6.03328 47.7705 6.03328C48.891 6.03328 49.8748 6.27832 50.7494 6.76841C51.6239 7.25849 52.2798 7.96638 52.717 8.86486L50.722 9.98116C50.2301 8.81041 49.2463 8.23865 47.7705 8.23865C47.0873 8.23865 46.5134 8.37479 46.0488 8.70151C45.5569 9.001 45.3383 9.43663 45.3383 10.0084ZM62.6647 6.00605C60.6697 6.00605 59.194 6.79563 58.2374 8.34756V6.38723H55.8325V20.0551H58.2374V12.8127C58.2374 11.288 58.5927 10.1717 59.3306 9.4094C60.0685 8.67428 60.9977 8.29311 62.2001 8.29311C63.2659 8.29311 64.0858 8.5926 64.687 9.19159C65.2883 9.79058 65.5889 10.6618 65.5889 11.7781V20.0278H67.9938V11.642C67.9938 9.92671 67.5019 8.53814 66.5454 7.53075C65.5616 6.49613 64.2771 6.00605 62.6647 6.00605ZM77.8048 18.0675C76.4384 18.0675 75.2906 17.6047 74.3341 16.6517C73.4049 15.726 72.9403 14.5553 72.9403 13.1667C72.9403 11.8054 73.4049 10.6346 74.3341 9.68167C75.2633 8.72873 76.4111 8.26588 77.8048 8.26588C79.1986 8.26588 80.3737 8.72873 81.3029 9.68167C82.2321 10.6074 82.6967 11.7781 82.6967 13.1667C82.6967 14.5553 82.2321 15.6988 81.3029 16.6517C80.3464 17.6047 79.1986 18.0675 77.8048 18.0675ZM82.6694 8.67428C81.4669 6.87731 79.7452 5.97883 77.4769 5.97883C75.5639 5.97883 73.9242 6.68672 72.585 8.07529C71.2459 9.46385 70.5627 11.1791 70.5627 13.1667C70.5627 15.1815 71.2459 16.8695 72.585 18.2581C73.9242 19.6467 75.5639 20.3546 77.4769 20.3546C79.7452 20.3546 81.4669 19.4561 82.6694 17.6591V20.0006H85.0743V6.33278H82.6694V8.67428ZM95.6232 18.0675C94.2568 18.0675 93.0816 17.6047 92.1251 16.6517C91.1959 15.726 90.7313 14.5553 90.7313 13.1667C90.7313 11.8054 91.1959 10.6346 92.1251 9.68167C93.0816 8.72873 94.2294 8.26588 95.6232 8.26588C96.9896 8.26588 98.1374 8.72873 99.0939 9.68167C100.023 10.6074 100.488 11.7781 100.488 13.1667C100.488 14.528 100.023 15.6988 99.0939 16.6517C98.1648 17.6047 97.017 18.0675 95.6232 18.0675ZM95.9238 6.00605C93.6555 6.00605 91.9338 6.90454 90.7313 8.70151V6.36H88.3264V24.7381H90.7313V17.6863C91.9338 19.4833 93.6555 20.3818 95.9238 20.3818C97.8368 20.3818 99.4765 19.7011 100.816 18.2853C102.155 16.8968 102.838 15.1815 102.838 13.1939C102.838 11.1791 102.155 9.49108 100.816 8.10252C99.4765 6.68672 97.8642 6.00605 95.9238 6.00605ZM111.665 18.0675C110.299 18.0675 109.151 17.6047 108.194 16.6517C107.265 15.726 106.801 14.5553 106.801 13.1667C106.801 11.8054 107.265 10.6346 108.194 9.68167C109.124 8.72873 110.271 8.26588 111.665 8.26588C113.059 8.26588 114.234 8.72873 115.163 9.68167C116.092 10.6074 116.557 11.7781 116.557 13.1667C116.557 14.528 116.092 15.6988 115.163 16.6517C114.207 17.6047 113.059 18.0675 111.665 18.0675ZM116.557 8.70151C115.355 6.90454 113.633 6.00605 111.365 6.00605C109.452 6.00605 107.812 6.71395 106.473 8.10252C105.134 9.49108 104.45 11.2064 104.45 13.1939C104.45 15.2087 105.134 16.8968 106.473 18.2853C107.812 19.6739 109.452 20.3818 111.365 20.3818C113.633 20.3818 115.355 19.4833 116.557 17.6863V20.0278H118.962V1.64977H116.557V8.70151ZM128.937 18.0403C127.571 18.0403 126.45 17.5774 125.521 16.6517C124.592 15.6988 124.127 14.5553 124.127 13.1667C124.127 11.7781 124.592 10.6074 125.521 9.68167C126.45 8.75596 127.598 8.29311 128.937 8.29311C130.303 8.29311 131.451 8.75596 132.408 9.68167C133.337 10.6346 133.801 11.7781 133.801 13.1667C133.801 14.5553 133.337 15.726 132.408 16.6517C131.479 17.5774 130.331 18.0403 128.937 18.0403ZM134.075 18.3126C135.469 16.924 136.179 15.2087 136.179 13.1939C136.179 11.1791 135.469 9.46385 134.075 8.07529C132.654 6.71395 130.959 6.00605 128.937 6.00605C126.915 6.00605 125.22 6.68672 123.826 8.07529C122.433 9.46385 121.722 11.1791 121.722 13.1939C121.722 15.2359 122.433 16.924 123.826 18.3126C125.22 19.6739 126.942 20.3818 128.937 20.3818C130.959 20.3818 132.681 19.7011 134.075 18.3126ZM145.225 20.3818C146.564 20.3818 147.766 20.0551 148.887 19.4016C149.98 18.7482 150.827 17.9042 151.401 16.8151L149.379 15.6443C148.996 16.3795 148.422 16.9512 147.712 17.3869C146.974 17.8225 146.154 18.0403 145.225 18.0403C143.858 18.0403 142.711 17.5774 141.781 16.6517C140.88 15.726 140.415 14.5825 140.415 13.1939C140.415 11.8054 140.852 10.6346 141.781 9.7089C142.683 8.78319 143.831 8.32033 145.225 8.32033C146.127 8.32033 146.974 8.56538 147.684 8.97378C148.422 9.40941 148.942 10.0084 149.297 10.7435L151.292 9.59999C150.745 8.51092 149.953 7.63966 148.887 6.98622C147.794 6.33277 146.564 6.00605 145.225 6.00605C143.175 6.00605 141.454 6.68672 140.06 8.07529C138.693 9.46385 138.01 11.1519 138.01 13.1939C138.01 15.2359 138.693 16.924 140.06 18.3126C141.426 19.6739 143.148 20.3818 145.225 20.3818ZM156.293 10.0084C156.293 9.43663 156.539 9.001 157.004 8.67428C157.496 8.34756 158.042 8.21142 158.725 8.21142C160.201 8.21142 161.158 8.81041 161.677 9.95394L163.672 8.83764C163.235 7.93916 162.579 7.25849 161.704 6.74118C160.83 6.2511 159.846 6.00605 158.725 6.00605C157.332 6.00605 156.184 6.38723 155.255 7.14958C154.353 7.93916 153.888 8.89209 153.888 10.0901C153.888 10.9886 154.161 11.7509 154.681 12.3227C155.2 12.8944 155.856 13.3028 156.621 13.5206C157.359 13.7385 158.124 13.9835 158.862 14.2013C159.6 14.4191 160.228 14.6914 160.775 15.0181C161.294 15.3448 161.568 15.7532 161.568 16.2978C161.568 16.9512 161.322 17.4141 160.802 17.7136C160.283 18.0131 159.627 18.1492 158.862 18.1492C158.042 18.1492 157.304 17.9586 156.703 17.5774C156.102 17.1963 155.692 16.679 155.473 16.0255L153.424 17.1963C153.833 18.1492 154.517 18.9388 155.446 19.5105C156.402 20.0823 157.55 20.3818 158.862 20.3818C160.365 20.3818 161.595 20.0006 162.551 19.2655C163.508 18.5304 164 17.523 164 16.2706C164 15.3176 163.726 14.5553 163.207 13.929C162.688 13.3028 162.032 12.8944 161.294 12.6766C160.556 12.4588 159.791 12.241 159.053 12.0232C158.315 11.8054 157.659 11.5331 157.113 11.2336C156.566 10.9341 156.293 10.5257 156.293 10.0084Z" fill="#1A2538"/>
<path d="M6.20363 20.2177H12.052V26.0443H0.355274V14.3912H6.20363V20.2177ZM20.2779 12.0225H26.1263V0.3694H14.4296V6.19593H20.2779V12.0225ZM12.052 1.64905V6.19593H6.20363V12.7304C4.67322 12.7304 3.27945 12.1586 2.1863 11.2601C0.847192 10.1438 0 8.45575 0 6.54988C0 3.14653 2.78753 0.3694 6.20363 0.3694H12.052V1.64905ZM24.3773 15.2624C23.2841 14.3095 21.863 13.7105 20.2779 13.7105V20.245H14.4296V24.7101V26.0443H20.2779C23.694 26.0443 26.4816 23.2671 26.4816 19.8638C26.4816 18.0396 25.6617 16.3787 24.3773 15.2624Z" fill="#F26B2C"/>
</svg>
