<svg width="146" height="39" viewBox="0 0 146 39" fill="none" xmlns="http://www.w3.org/2000/svg">
<path d="M98.3533 8.62954C95.7848 8.62954 93.8043 9.53932 91.9666 11.4381V9.07201H86.9225V32.3548H92.3499V18.8513C92.3499 15.7599 94.2018 13.8043 97.0119 13.8043C97.5226 13.8043 97.9701 13.867 98.2891 13.9297L102.056 9.00813C100.587 8.75613 99.3115 8.62954 98.3533 8.62954ZM145.159 9.07201H138.9L133.122 16.6661L127.343 9.07083H121.085L129.914 20.8033L121.085 32.3548H127.471L133.09 24.989L138.709 32.3548H145.159L136.27 20.8223L145.159 9.07201ZM31.1775 3.83456C29.3255 6.29535 28.878 7.11522 27.0903 7.11522H0.398438V38.6641H10.8712C13.2337 38.6641 15.5321 37.5284 17.0008 35.6355C18.917 33.112 19.1717 32.3548 21.0237 32.3548H47.7798V0.805908H37.2428C34.8802 0.805908 32.5819 1.94165 31.1763 3.83456H31.1775ZM39.478 24.2153H28.3031C25.8762 24.2153 23.6422 25.2245 22.1735 27.1801C20.2572 29.7047 19.874 30.4619 18.0863 30.4619H8.63593V15.3186H19.8109C22.2365 15.3186 24.4718 14.1829 25.9405 12.29C27.8568 9.82918 28.3674 9.07201 30.0908 9.07201H39.478V24.2153ZM79.5788 16.4544C81.9426 15.1293 83.6018 12.7939 83.6018 9.70259C83.6018 5.1596 80.0906 0.805908 74.9822 0.805908H59.657V32.3548H74.9822C80.537 32.3548 84.3683 28.4424 84.3683 23.5208C84.3683 20.6188 83.0281 18.0941 79.5788 16.4544ZM65.0844 5.72748H74.5347C76.8973 5.72748 78.3017 7.93626 78.3017 9.89188C78.3017 12.29 76.1951 13.9297 74.2157 13.9297H65.0844V5.72748ZM74.2157 27.4332H65.0844V18.8513H74.5347C76.9615 18.8513 78.9409 20.9335 78.9409 23.0795C78.9409 25.4764 76.4509 27.4332 74.2157 27.4332Z" fill="#9FA0A2"/>
<path d="M115.66 25.6644C114.766 27.0533 113.041 27.8732 111.125 27.8732C108.126 27.8732 105.635 25.8537 105.635 22.7623H121.854C122.11 21.8158 122.173 21.3746 122.173 20.5535C122.173 13.487 117.767 8.62817 111.126 8.62817C104.612 8.62817 100.016 13.235 100.016 20.7428C100.016 28.0624 104.421 32.7947 111.254 32.7947C116.043 32.7947 120.258 30.4605 121.47 25.6644H115.66ZM111.125 13.5497C114.127 13.5497 116.426 15.4427 116.362 18.282H105.698C105.698 15.5065 108.126 13.5497 111.125 13.5497Z" fill="#9FA0A2"/>
</svg>
