<svg width="133" height="56" viewBox="0 0 133 56" fill="none" xmlns="http://www.w3.org/2000/svg">
<path fill-rule="evenodd" clip-rule="evenodd" d="M133.001 28.8479C133.001 19.4254 128.419 11.9905 119.664 11.9905C110.871 11.9905 105.551 19.4254 105.551 28.7743C105.551 39.8531 111.831 45.4477 120.846 45.4477C125.242 45.4477 128.567 44.454 131.079 43.0553V35.694C128.567 36.9454 125.686 37.7183 122.028 37.7183C118.444 37.7183 115.267 36.4669 114.861 32.1237H132.927C132.927 31.6452 133.001 29.7313 133.001 28.8479ZM114.75 25.3513C114.75 21.1921 117.299 19.4622 119.627 19.4622C121.88 19.4622 124.282 21.1921 124.282 25.3513H114.75Z" fill="#9FA0A2"/>
<path fill-rule="evenodd" clip-rule="evenodd" d="M91.2906 11.9905C87.67 11.9905 85.3425 13.6836 84.0495 14.8614L83.5692 12.5794H75.4414V55.496L84.6775 53.5452L84.7145 43.1289C86.0445 44.0859 88.0025 45.4477 91.2537 45.4477C97.8667 45.4477 103.889 40.1476 103.889 28.4799C103.852 17.8059 97.7559 11.9905 91.2906 11.9905ZM89.0739 37.3503C86.8942 37.3503 85.6011 36.5773 84.7145 35.6204L84.6775 21.9651C85.6381 20.8977 86.9681 20.1616 89.0739 20.1616C92.4359 20.1616 94.7634 23.9158 94.7634 28.7375C94.7634 33.6696 92.4728 37.3503 89.0739 37.3503Z" fill="#9FA0A2"/>
<path fill-rule="evenodd" clip-rule="evenodd" d="M62.7305 9.82137L72.0035 7.83381V0.362061L62.7305 2.31281V9.82137Z" fill="#9FA0A2"/>
<path d="M72.0035 12.6208H62.7305V44.8267H72.0035V12.6208Z" fill="#9FA0A2"/>
<path fill-rule="evenodd" clip-rule="evenodd" d="M52.7938 15.3436L52.2027 12.62H44.2227V44.8258H53.4588V22.9994C55.6385 20.1653 59.333 20.6806 60.4782 21.0855V12.62C59.296 12.1783 54.9735 11.3685 52.7938 15.3436Z" fill="#9FA0A2"/>
<path fill-rule="evenodd" clip-rule="evenodd" d="M34.3209 4.63135L25.3065 6.54529L25.2695 36.0274C25.2695 41.4748 29.3704 45.4868 34.8382 45.4868C37.8676 45.4868 40.0843 44.9347 41.3035 44.2721V36.8004C40.1212 37.2789 34.284 38.972 34.284 33.5246V20.4582H41.3035V12.6184H34.284L34.3209 4.63135Z" fill="#9FA0A2"/>
<path fill-rule="evenodd" clip-rule="evenodd" d="M9.34697 21.9651C9.34697 20.5296 10.5292 19.9775 12.4873 19.9775C15.295 19.9775 18.8417 20.8241 21.6495 22.3332V13.6836C18.5831 12.469 15.5536 11.9905 12.4873 11.9905C4.98751 11.9905 0 15.892 0 22.4068C0 32.5654 14.0389 30.9459 14.0389 35.3259C14.0389 37.019 12.5611 37.5711 10.4922 37.5711C7.42585 37.5711 3.50973 36.3197 0.406389 34.6266V43.3866C3.84223 44.8588 7.31502 45.4846 10.4922 45.4846C18.1767 45.4846 23.4598 41.6935 23.4598 35.1051C23.4228 24.1367 9.34697 26.0874 9.34697 21.9651Z" fill="#9FA0A2"/>
</svg>
