<svg width="220" height="120" viewBox="0 0 220 120" fill="none" xmlns="http://www.w3.org/2000/svg">
<rect width="220" height="120" rx="6" fill="white"/>
<path d="M66.5808 35.3135H59.9829C59.9829 40.7235 57.4976 45.6605 53.1779 48.9124L50.5742 50.8635L60.693 64.6398H69.007L59.687 51.9574C64.0955 47.5821 66.5808 41.6695 66.5808 35.3135Z" fill="#9FA0A2"/>
<path d="M49.7459 35.3135H43V64.6398H49.7459V35.3135Z" fill="#9FA0A2"/>
<path d="M77.3222 35.3135H70.9609V64.6398H77.3222V35.3135Z" fill="#9FA0A2"/>
<path d="M133.121 43.7974C130.695 43.7974 128.387 44.5364 126.848 46.6354V44.3591H120.812V64.6392H126.937V53.9966C126.937 50.922 129.008 49.4143 131.493 49.4143C134.156 49.4143 135.695 51.0107 135.695 53.967V64.6687H141.76V51.7498C141.76 47.0197 138.003 43.7974 133.121 43.7974Z" fill="#9FA0A2"/>
<path d="M96.551 44.3591V45.6598C94.8349 44.4773 92.7638 43.7974 90.5152 43.7974C84.5978 43.7974 79.8047 48.5865 79.8047 54.4991C79.8047 60.4117 84.5978 65.2009 90.5152 65.2009C92.7638 65.2009 94.8349 64.5209 96.551 63.3384V64.6392H102.616V44.3591H96.551ZM91.0182 59.7022C87.9707 59.7022 85.515 57.3667 85.515 54.4991C85.515 51.6315 87.9707 49.2961 91.0182 49.2961C94.0657 49.2961 96.5214 51.6315 96.5214 54.4991C96.5214 57.3667 94.0657 59.7022 91.0182 59.7022Z" fill="#9FA0A2"/>
<path d="M112.026 46.9888V44.3577H105.812V64.6378H112.055V55.1777C112.055 51.9849 115.517 50.2702 117.914 50.2702C117.943 50.2702 117.973 50.2702 117.973 50.2702V44.3577C115.517 44.3577 113.239 45.4219 112.026 46.9888Z" fill="#9FA0A2"/>
<path d="M160.637 44.3591V45.6598C158.921 44.4773 156.85 43.7974 154.601 43.7974C148.684 43.7974 143.891 48.5865 143.891 54.4991C143.891 60.4117 148.684 65.2009 154.601 65.2009C156.85 65.2009 158.921 64.5209 160.637 63.3384V64.6392H166.702V44.3591H160.637ZM155.104 59.7022C152.057 59.7022 149.601 57.3667 149.601 54.4991C149.601 51.6315 152.057 49.2961 155.104 49.2961C158.152 49.2961 160.607 51.6315 160.607 54.4991C160.637 57.3667 158.152 59.7022 155.104 59.7022Z" fill="#9FA0A2"/>
<path d="M171.407 44.9513C171.407 44.6556 171.2 44.4783 170.875 44.4783H170.312V46.0155H170.579V45.4538H170.875L171.111 46.0155H171.407L171.141 45.3947C171.318 45.306 171.407 45.1582 171.407 44.9513ZM170.875 45.1878H170.579V44.7148H170.875C171.052 44.7148 171.141 44.8035 171.141 44.9513C171.141 45.0991 171.082 45.1878 170.875 45.1878Z" fill="#9FA0A2"/>
<path d="M170.786 43.8284C169.987 43.8284 169.336 44.4788 169.336 45.277C169.366 46.0751 169.987 46.7255 170.786 46.7255C171.585 46.7255 172.235 46.0751 172.235 45.277C172.235 44.4788 171.585 43.8284 170.786 43.8284ZM170.786 46.4595C170.135 46.4595 169.632 45.9273 169.632 45.277C169.632 44.6266 170.164 44.0944 170.786 44.0944C171.437 44.0944 171.94 44.6266 171.94 45.277C171.94 45.9273 171.407 46.4595 170.786 46.4595Z" fill="#9FA0A2"/>
<path d="M173.184 57.457C171.083 57.457 169.367 59.1717 169.367 61.2706C169.367 63.3696 171.083 65.0843 173.184 65.0843C175.285 65.0843 177.001 63.3696 177.001 61.2706C177.001 59.1421 175.285 57.457 173.184 57.457Z" fill="#9FA0A2"/>
</svg>
