<svg width="126" height="45" viewBox="0 0 126 45" fill="none" xmlns="http://www.w3.org/2000/svg">
<path d="M102.956 43.7133C102.771 43.7133 102.621 43.5643 102.621 43.3806V3.31559C102.621 3.15804 102.732 3.0221 102.887 2.98998L109.875 1.54421C110.082 1.50122 110.277 1.65887 110.277 1.86981V43.3806C110.277 43.5643 110.128 43.7133 109.943 43.7133H102.956Z" fill="#9FA0A2"/>
<path d="M15.1301 44.5612C12.3387 44.5612 9.84639 43.8828 7.65316 42.5259C5.45995 41.169 3.72531 39.3131 2.44924 36.9584C1.17319 34.6039 0.535156 31.93 0.535156 28.9367C0.535156 25.9436 1.17319 23.2896 2.44924 20.9749C3.72531 18.6202 5.45995 16.7844 7.65316 15.4674C9.84639 14.1105 12.3387 13.432 15.1301 13.432C17.3632 13.432 19.3172 13.8511 20.992 14.6892C22.3344 15.361 23.472 16.2507 24.4044 17.3584C24.6159 17.6096 25.0594 17.4675 25.0594 17.1399V2.59562C25.0594 2.43806 25.1707 2.30213 25.3258 2.27002L32.3129 0.824241C32.5206 0.781248 32.7158 0.938898 32.7158 1.14984V43.5103C32.7158 43.694 32.5658 43.8428 32.3812 43.8428H26.1722C26.0123 43.8428 25.8745 43.7302 25.8439 43.5742L25.2076 40.3447C25.1512 40.0591 24.7742 39.9743 24.5874 40.1982C23.6958 41.2674 22.5771 42.2228 21.2312 43.0646C19.676 44.0623 17.6423 44.5612 15.1301 44.5612ZM16.7451 37.8565C19.2174 37.8565 21.2312 37.0384 22.7864 35.4021C24.3814 33.7259 25.179 31.5907 25.179 28.9966C25.179 26.4025 24.3814 24.2874 22.7864 22.6511C21.2312 20.9749 19.2174 20.1368 16.7451 20.1368C14.3126 20.1368 12.2988 20.9548 10.7037 22.5912C9.10867 24.2275 8.31114 26.3426 8.31114 28.9367C8.31114 31.5308 9.10867 33.666 10.7037 35.3422C12.2988 37.0183 14.3126 37.8565 16.7451 37.8565Z" fill="#9FA0A2"/>
<path d="M51.3842 44.5669C48.3936 44.5669 45.7418 43.9283 43.4289 42.6513C41.116 41.3742 39.3016 39.5783 37.9856 37.2636C36.6698 34.9488 36.0117 32.2749 36.0117 29.2419C36.0117 26.1688 36.6498 23.435 37.9259 21.0405C39.2419 18.6459 41.0363 16.7901 43.3093 15.4731C45.6222 14.1162 48.3337 13.4377 51.4441 13.4377C54.3552 13.4377 56.9273 14.0763 59.1602 15.3534C61.3934 16.6305 63.1281 18.3865 64.3641 20.6214C65.6403 22.8163 66.2783 25.2709 66.2783 27.9846C66.2783 28.4236 66.2583 28.8827 66.2184 29.3615C66.2184 29.7451 66.2058 30.1416 66.18 30.5508C66.1692 30.7243 66.0235 30.8581 65.8486 30.8581H43.9667C43.7728 30.8581 43.6191 31.0215 43.6382 31.2133C43.852 33.3594 44.6396 35.0568 46.001 36.3058C47.4765 37.6227 49.2509 38.2812 51.3245 38.2812C52.8797 38.2812 54.1757 37.9419 55.2124 37.2636C56.2269 36.5868 56.9934 35.7328 57.5124 34.7018C57.5707 34.5856 57.6888 34.5099 57.8192 34.5099H64.9331C65.1567 34.5099 65.3175 34.7237 65.2473 34.9348C64.6781 36.6454 63.7858 38.2199 62.5697 39.6581C61.2938 41.1746 59.6987 42.372 57.7845 43.2499C55.9104 44.1279 53.777 44.5669 51.3842 44.5669ZM51.4441 19.6636C49.57 19.6636 47.915 20.2023 46.4794 21.2799C45.1322 22.2537 44.2415 23.7197 43.8074 25.6776C43.7625 25.8804 43.9207 26.0691 44.1298 26.0691H58.1468C58.3395 26.0691 58.4931 25.9073 58.4738 25.7166C58.2932 23.9256 57.5848 22.4865 56.3489 21.3997C55.0331 20.2423 53.3982 19.6636 51.4441 19.6636Z" fill="#9FA0A2"/>
<path d="M84.6928 44.5669C81.702 44.5669 79.0502 43.9283 76.7373 42.6513C74.4245 41.3742 72.6102 39.5783 71.2942 37.2636C69.9782 34.9488 69.3203 32.2749 69.3203 29.2419C69.3203 26.1688 69.9584 23.435 71.2343 21.0405C72.5503 18.6459 74.3447 16.7901 76.6177 15.4731C78.9306 14.1162 81.6423 13.4377 84.7527 13.4377C87.6636 13.4377 90.2357 14.0763 92.4688 15.3534C94.7019 16.6305 96.4365 18.3865 97.6727 20.6214C98.9488 22.8163 99.5867 25.2709 99.5867 27.9846C99.5867 28.4236 99.5669 28.8827 99.527 29.3615C99.527 29.7451 99.5142 30.1416 99.4886 30.5508C99.4778 30.7243 99.3321 30.8581 99.1572 30.8581H77.2751C77.0814 30.8581 76.9277 31.0215 76.9468 31.2133C77.1606 33.3594 77.9482 35.0568 79.3094 36.3058C80.7849 37.6227 82.5594 38.2812 84.6329 38.2812C86.1881 38.2812 87.4843 37.9419 88.521 37.2636C89.5353 36.5868 90.302 35.7328 90.8208 34.7018C90.8793 34.5856 90.9972 34.5099 91.1278 34.5099H98.2417C98.4653 34.5099 98.6259 34.7237 98.5557 34.9348C97.9867 36.6454 97.0942 38.2199 95.8783 39.6581C94.6022 41.1746 93.0071 42.372 91.0931 43.2499C89.2188 44.1279 87.0854 44.5669 84.6928 44.5669ZM84.7527 19.6636C82.8784 19.6636 81.2236 20.2023 79.788 21.2799C78.4408 22.2537 77.5501 23.7197 77.116 25.6776C77.071 25.8804 77.2291 26.0691 77.4382 26.0691H91.4552C91.6479 26.0691 91.8015 25.9073 91.7824 25.7166C91.6017 23.9256 90.8934 22.4865 89.6575 21.3997C88.3415 20.2423 86.7066 19.6636 84.7527 19.6636Z" fill="#9FA0A2"/>
<path d="M120.311 43.7237C123.158 43.7237 125.466 41.414 125.466 38.5648C125.466 35.7157 123.158 33.406 120.311 33.406C117.464 33.406 115.156 35.7157 115.156 38.5648C115.156 41.414 117.464 43.7237 120.311 43.7237Z" fill="#9FA0A2"/>
</svg>
