<svg width="94" height="65" viewBox="0 0 94 65" fill="none" xmlns="http://www.w3.org/2000/svg">
<path d="M23.7008 14.8022V39.4101C23.7008 41.6019 23.8008 42.897 23.9008 44.1922H23.8008C23.3008 42.6978 22.6008 41.5022 21.7008 39.8086L7.00078 14.8022H0.300781V50.7675H5.50078V26.2593C5.50078 24.0675 5.40078 22.7724 5.30078 21.4772H5.40078C5.90078 22.9716 6.60078 24.1672 7.50078 25.8608L22.1008 50.8672H28.7008V14.8022H23.7008Z" fill="#9FA0A2"/>
<path d="M83.0984 26.8586C78.7984 26.8586 75.6984 28.8512 74.1984 31.7403C74.1984 24.7665 76.5984 18.7889 82.3984 18.7889C86.0984 18.7889 87.4984 20.881 88.2984 24.368L93.5984 23.2721C92.2984 17.2945 88.4984 14.4053 82.3984 14.4053C74.6984 14.4053 68.8984 20.2833 68.8984 33.5336C68.8984 45.2896 73.6984 51.1676 81.9984 51.1676C88.8984 51.1676 93.9984 46.4851 93.9984 38.8139C93.9984 32.8362 90.7984 26.8586 83.0984 26.8586ZM81.9984 46.8836C77.6984 46.8836 74.7984 42.9982 74.2984 37.8176C75.5984 33.434 78.4984 31.2422 81.8984 31.2422C86.2984 31.2422 88.6984 34.4303 88.6984 39.0131C88.6984 43.8948 85.8984 46.8836 81.9984 46.8836Z" fill="#9FA0A2"/>
<path d="M45.1992 46.184C47.8992 44.2911 51.7992 41.2027 53.5992 39.509C55.5992 37.5165 61.1992 32.5351 61.1992 25.362C61.1992 17.89 56.2992 14.5027 49.7992 14.5027C41.7992 14.5027 37.8992 19.3844 37.8992 24.9635C37.8992 25.8601 37.9992 26.7568 38.2992 27.8527L43.7992 28.3508C43.4992 27.1553 43.3992 26.159 43.3992 25.2624C43.3992 21.0781 46.1992 19.0855 49.6992 19.0855C53.0992 19.0855 55.5992 20.9784 55.5992 25.5613C55.5992 30.1441 53.2992 33.3322 49.8992 36.8191C46.2992 40.4057 40.4992 44.6896 37.6992 46.6822V50.9661H61.6992V46.2837H45.1992V46.184Z" fill="#9FA0A2"/>
<path d="M29.1 60.2336V64.9161H0V60.2336H29.1Z" fill="#9FA0A2"/>
<path d="M29.1 0.854492V5.53695H0V0.854492H29.1Z" fill="#9FA0A2"/>
</svg>
