<svg width="700" height="120" viewBox="0 0 700 120" fill="none" xmlns="http://www.w3.org/2000/svg">
<rect width="220" height="120" rx="6" fill="white"/>
<rect x="240" width="220" height="120" rx="6" fill="white"/>
<rect x="480" width="220" height="120" rx="6" fill="white"/>
<path fill-rule="evenodd" clip-rule="evenodd" d="M113.609 42.2526C112.435 41.2747 110.43 40.7863 107.595 40.7863H101.199V60.3539H105.981V54.2211H108.124C110.724 54.2211 112.63 53.6546 113.844 52.5205C115.21 51.2499 115.898 49.558 115.898 47.4459C115.898 45.2557 115.135 43.5243 113.609 42.2526ZM108.005 49.7934H105.981V45.2139H107.799C110.01 45.2139 111.116 45.9818 111.116 47.5174C111.116 49.0333 110.078 49.7934 108.005 49.7934ZM124.081 40.7852H119.095V60.3528H129.861V55.924H124.081V40.7852ZM139.631 40.7852L131.798 60.3528H137.167L138.194 57.5081H145L145.939 60.3528H151.368L143.59 40.7852H139.631ZM139.573 53.5468L141.627 46.8585L143.649 53.5468H139.573Z" fill="#9FA0A2"/>
<path fill-rule="evenodd" clip-rule="evenodd" d="M153.859 60.3502H158.847V40.7826H153.859V60.3502ZM178.211 44.4501C177.581 43.5457 176.772 42.7774 175.833 42.1917C174.328 41.2523 172.273 40.7837 169.672 40.7837H163.101V60.3502H170.788C173.566 60.3502 175.794 59.4515 177.477 57.6518C179.159 55.8532 179.999 53.4661 179.999 50.4927C179.999 48.1276 179.403 46.1134 178.211 44.4501ZM170.23 55.9203H168.089V45.2125H170.26C171.786 45.2125 172.958 45.6855 173.78 46.6282C174.602 47.571 175.013 48.9086 175.013 50.6401C175.013 54.1603 173.419 55.9203 170.23 55.9203ZM60.7078 24.3545L44.5444 28.5457L40.09 44.6383L45.6611 50.3013L40 55.8708L44.1922 72.0338L60.2856 76.4857L65.9478 70.9151L71.5189 76.577L87.6822 72.3858L92.1356 56.2921L86.5656 50.6313L92.2267 45.0618L88.0344 28.8977L71.9389 24.4458L66.2789 30.0153L60.7078 24.3545ZM50.7889 31.6412L59.3033 29.4323L63.0267 33.2165L57.5967 38.5583L50.7889 31.6412ZM69.48 33.2671L73.2633 29.5456L81.7411 31.8909L74.8222 38.6969L69.48 33.2671ZM45.1911 43.3171L47.5367 34.8412L54.3422 41.7583L48.9133 47.1002L45.1911 43.316V43.3171ZM78.0211 41.9497L84.94 35.1415L87.1467 43.6559L83.3644 47.3785L78.0211 41.9497ZM60.7967 41.81L66.2267 36.4682L71.5678 41.898L66.1389 47.2399L60.7967 41.81ZM52.1144 50.3519L57.5433 45.0101L62.8878 50.4399L57.4567 55.7817L52.1144 50.3519ZM69.34 50.4916L74.7689 45.1498L80.1111 50.5796L74.6811 55.9214L69.34 50.4916ZM45.0778 57.2756L48.8622 53.5519L54.2033 58.9829L47.2867 65.7877L45.0778 57.2756ZM60.6567 59.0335L66.0867 53.6916L71.4289 59.1215L66 64.4633L60.6567 59.0335ZM77.8811 59.1743L83.3111 53.8324L87.0344 57.6155L84.69 66.0914L77.8811 59.1743ZM50.4856 69.0417L57.4033 62.2335L62.7478 67.6633L58.9633 71.387L50.4856 69.0417ZM69.2 67.715L74.6289 62.3732L81.4356 69.2914L72.9222 71.4992L69.2 67.715Z" fill="#9FA0A2"/>
<path d="M395.262 60.1385C396.27 60.1385 397.088 59.31 397.088 58.2881C397.088 57.266 396.27 56.4375 395.262 56.4375C394.254 56.4375 393.438 57.266 393.438 58.2881C393.438 59.31 394.254 60.1385 395.262 60.1385Z" fill="#9FA0A2"/>
<path d="M290.265 59.6523C289.449 59.3115 288.728 58.8245 288.2 58.1913C287.624 57.5583 287.191 56.8279 286.855 56C286.519 55.1722 286.375 54.2469 286.375 53.273C286.375 52.299 286.519 51.3738 286.807 50.5459C287.095 49.718 287.528 48.9389 288.104 48.3545C288.68 47.7214 289.353 47.2345 290.121 46.8936C290.938 46.5527 291.802 46.3579 292.811 46.3579C293.675 46.3579 294.396 46.4553 295.068 46.6988C295.741 46.9423 296.317 47.2832 296.845 47.6727C297.374 48.0623 297.758 48.598 298.046 49.1824C298.382 49.7667 298.574 50.4485 298.67 51.1303H295.308C295.212 50.5459 294.924 50.0589 294.492 49.6693C294.06 49.2798 293.531 49.085 292.907 49.085C291.85 49.085 291.082 49.4745 290.553 50.205C290.025 50.9355 289.785 51.9581 289.785 53.2243C289.785 54.4904 290.025 55.4644 290.553 56.2434C291.034 57.0226 291.85 57.3635 292.907 57.3635C293.627 57.3635 294.204 57.1688 294.636 56.8279C295.068 56.4383 295.356 55.9026 295.5 55.1234H298.863C298.815 55.8052 298.622 56.4869 298.334 57.0713C298.046 57.6558 297.662 58.1913 297.134 58.6783C296.653 59.1167 296.029 59.5062 295.356 59.7497C294.636 59.9932 293.868 60.1393 293.003 60.1393C291.994 60.188 291.082 59.9932 290.265 59.6523Z" fill="#9FA0A2"/>
<path d="M304.242 48.354C304.722 47.6722 305.25 47.1366 305.827 46.7957C306.403 46.4548 307.123 46.26 308.036 46.26C308.708 46.26 309.333 46.4061 309.861 46.6496C310.389 46.8931 310.87 47.234 311.254 47.6722C311.638 48.1105 311.926 48.6462 312.166 49.2306C312.407 49.8149 312.503 50.4967 312.503 51.2272V59.7979H309.045V51.7141C309.045 50.9837 308.852 50.3993 308.468 49.961C308.084 49.5227 307.508 49.2793 306.787 49.2793C306.019 49.2793 305.394 49.5714 304.914 50.1071C304.434 50.6428 304.146 51.3732 304.146 52.2985V59.7979H300.688V41.439H304.146V48.354H304.242Z" fill="#9FA0A2"/>
<path d="M318.17 59.6504C317.354 59.3096 316.634 58.8226 316.057 58.1895C315.481 57.5565 315.049 56.826 314.76 55.9495C314.472 55.0729 314.328 54.1964 314.328 53.2224C314.328 52.2485 314.472 51.3232 314.808 50.4953C315.145 49.6675 315.577 48.937 316.105 48.304C316.682 47.6709 317.354 47.1839 318.122 46.843C318.891 46.5022 319.755 46.3074 320.716 46.3074C321.773 46.3074 322.685 46.5022 323.454 46.8917C324.27 47.2813 324.895 47.817 325.471 48.4988C325.999 49.1805 326.431 50.0571 326.72 50.9823C327.008 51.9563 327.152 53.0276 327.152 54.1964H317.738C317.882 55.219 318.218 56.0468 318.747 56.6312C319.275 57.2156 320.044 57.5078 321.052 57.5078C321.725 57.5078 322.253 57.3617 322.685 57.0695C323.069 56.7773 323.406 56.3878 323.55 55.9008H326.96C326.864 56.4851 326.624 57.0208 326.335 57.5565C325.999 58.0922 325.615 58.5304 325.135 58.92C324.654 59.3096 324.03 59.6504 323.358 59.8452C322.685 60.0887 321.917 60.1861 321.1 60.1861C319.996 60.1861 319.035 59.9914 318.17 59.6504ZM318.699 49.7162C318.218 50.2032 317.93 50.9336 317.738 51.7615H323.502C323.454 50.9336 323.166 50.2519 322.685 49.7162C322.205 49.1805 321.533 48.937 320.764 48.937C319.851 48.9857 319.179 49.2292 318.699 49.7162Z" fill="#9FA0A2"/>
<path d="M332.293 59.6523C331.476 59.3115 330.756 58.8245 330.228 58.1913C329.651 57.5583 329.219 56.8279 328.883 56C328.546 55.1722 328.402 54.2469 328.402 53.273C328.402 52.299 328.546 51.3738 328.835 50.5459C329.123 49.718 329.555 48.9389 330.131 48.3545C330.708 47.7214 331.38 47.2345 332.149 46.8936C332.965 46.5527 333.83 46.3579 334.838 46.3579C335.703 46.3579 336.423 46.4553 337.096 46.6988C337.768 46.9423 338.344 47.2832 338.873 47.6727C339.401 48.0623 339.785 48.598 340.073 49.1824C340.41 49.7667 340.602 50.4485 340.698 51.1303H337.336C337.24 50.5459 336.952 50.0589 336.519 49.6693C336.087 49.2798 335.559 49.085 334.934 49.085C333.878 49.085 333.109 49.4745 332.581 50.205C332.053 50.9355 331.812 51.9581 331.812 53.2243C331.812 54.4904 332.053 55.4644 332.581 56.2434C333.061 57.0226 333.878 57.3635 334.934 57.3635C335.655 57.3635 336.231 57.1688 336.663 56.8279C337.096 56.4383 337.384 55.9026 337.528 55.1234H340.842C340.794 55.8052 340.602 56.4869 340.314 57.0713C340.025 57.6558 339.641 58.1913 339.113 58.6783C338.633 59.1167 338.008 59.5062 337.336 59.7497C336.615 59.9932 335.847 60.1393 334.982 60.1393C334.022 60.188 333.109 59.9932 332.293 59.6523Z" fill="#9FA0A2"/>
<path d="M346.176 55.3665V59.7979H342.766V41.439H346.176V51.6167L350.787 46.6496H354.917L350.114 51.6654L355.493 59.7979H351.315L347.665 53.8081L346.176 55.3665Z" fill="#9FA0A2"/>
<path d="M359.284 59.6523C358.468 59.3115 357.748 58.8245 357.123 58.1914C356.547 57.5583 356.067 56.8279 355.73 56C355.394 55.1722 355.25 54.2469 355.25 53.273C355.25 52.299 355.394 51.3738 355.73 50.5459C356.067 49.718 356.547 48.9389 357.123 48.3545C357.7 47.7214 358.42 47.2345 359.284 46.8936C360.101 46.5527 361.013 46.3579 362.022 46.3579C363.031 46.3579 363.943 46.5527 364.76 46.8936C365.576 47.2345 366.297 47.7214 366.921 48.3545C367.497 48.9876 367.978 49.718 368.314 50.5459C368.65 51.3738 368.794 52.299 368.794 53.273C368.794 54.2469 368.65 55.1722 368.314 56C367.978 56.8279 367.497 57.607 366.921 58.1914C366.345 58.8245 365.624 59.3115 364.76 59.6523C363.943 59.9932 363.031 60.188 362.022 60.188C361.013 60.188 360.101 59.9932 359.284 59.6523ZM364.472 56.3409C365.048 55.5617 365.336 54.5391 365.336 53.2243C365.336 51.9094 365.048 50.8868 364.472 50.1076C363.895 49.3285 363.079 48.8902 362.022 48.8902C360.965 48.8902 360.149 49.2798 359.573 50.1076C358.996 50.8868 358.708 51.9581 358.708 53.2243C358.708 54.4904 358.996 55.5617 359.573 56.3409C360.149 57.1201 360.965 57.5096 362.022 57.5096C363.079 57.5096 363.895 57.1201 364.472 56.3409Z" fill="#9FA0A2"/>
<path d="M378.879 58.2399H378.783C378.351 58.8243 377.823 59.3113 377.294 59.6521C376.718 59.993 375.998 60.1391 375.085 60.1391C373.644 60.1391 372.539 59.7008 371.723 58.8729C370.954 57.9964 370.57 56.8764 370.57 55.4155V46.6499H373.98V54.8311C373.98 55.6102 374.172 56.1946 374.509 56.5842C374.845 56.9737 375.421 57.2172 376.142 57.2172C376.958 57.2172 377.583 56.9251 378.063 56.3894C378.543 55.8537 378.783 55.1233 378.783 54.2467V46.6499H382.241V59.7982H378.927V58.2399H378.879Z" fill="#9FA0A2"/>
<path d="M385.558 46.6483V42.509H388.92V46.6483H391.13V48.9371H388.92V55.9008C388.92 56.3878 389.016 56.7287 389.257 56.9235C389.497 57.1183 389.785 57.2157 390.217 57.2157H390.89C390.986 57.2157 391.13 57.2157 391.226 57.167V59.7966C391.034 59.7966 390.89 59.8453 390.649 59.8453C390.457 59.8453 390.217 59.8941 389.977 59.8941H389.064C388.632 59.8941 388.248 59.8453 387.816 59.7479C387.383 59.6506 387.047 59.5044 386.711 59.2609C386.375 59.0174 386.087 58.6766 385.895 58.287C385.702 57.8974 385.558 57.3617 385.558 56.7287V48.9371H383.781V46.6483H385.558Z" fill="#9FA0A2"/>
<path d="M402.082 59.602C401.362 59.2611 400.737 58.7741 400.209 58.1411C399.681 57.508 399.296 56.7775 399.056 55.9497C398.816 55.1218 398.672 54.1966 398.672 53.1739C398.672 52.1513 398.816 51.2747 399.056 50.3982C399.344 49.5703 399.729 48.7912 400.209 48.2068C400.737 47.5737 401.362 47.0868 402.082 46.7459C402.802 46.405 403.667 46.2102 404.628 46.2102C406.068 46.2102 407.269 46.5998 408.182 47.3303C409.094 48.0607 409.671 49.1321 409.911 50.4956H408.374C408.182 49.5216 407.797 48.7425 407.125 48.2555C406.501 47.7685 405.684 47.525 404.676 47.525C403.907 47.525 403.283 47.6711 402.706 47.9633C402.178 48.2555 401.698 48.6451 401.362 49.1807C401.025 49.6677 400.737 50.3008 400.593 50.9826C400.401 51.6643 400.353 52.3947 400.353 53.1739C400.353 53.9531 400.449 54.6836 400.641 55.3653C400.833 56.0471 401.073 56.6315 401.458 57.1672C401.794 57.7028 402.274 58.0924 402.802 58.3846C403.331 58.6767 404.003 58.8229 404.724 58.8229C405.828 58.8229 406.741 58.4819 407.413 57.8489C408.086 57.2158 408.47 56.3393 408.614 55.2679H410.103C409.959 56.7775 409.43 57.9462 408.47 58.8716C407.557 59.7481 406.309 60.1864 404.724 60.1864C403.667 60.1376 402.802 59.9429 402.082 59.602Z" fill="#9FA0A2"/>
<path d="M414.906 59.602C414.137 59.2611 413.513 58.7741 412.985 58.1411C412.456 57.508 412.072 56.7775 411.784 55.9497C411.496 55.1218 411.352 54.1966 411.352 53.1739C411.352 52.1513 411.496 51.2747 411.784 50.3982C412.072 49.5703 412.456 48.7912 412.985 48.2068C413.513 47.5737 414.137 47.0868 414.906 46.7459C415.674 46.405 416.491 46.2102 417.451 46.2102C418.412 46.2102 419.228 46.405 419.997 46.7459C420.717 47.0868 421.39 47.5737 421.918 48.2068C422.446 48.8399 422.831 49.5703 423.119 50.3982C423.407 51.226 423.503 52.1513 423.503 53.1739C423.503 54.1966 423.359 55.0731 423.119 55.9497C422.831 56.7775 422.446 57.5567 421.918 58.1411C421.39 58.7741 420.765 59.2611 419.997 59.602C419.276 59.9429 418.412 60.1376 417.451 60.1376C416.539 60.1376 415.674 59.9429 414.906 59.602ZM419.373 58.3846C419.949 58.0924 420.381 57.7028 420.765 57.1672C421.15 56.6315 421.438 56.0471 421.582 55.3653C421.774 54.6836 421.87 53.9531 421.87 53.1739C421.87 52.3947 421.774 51.6643 421.582 50.9826C421.39 50.3008 421.102 49.7164 420.765 49.1807C420.381 48.6451 419.949 48.2555 419.373 47.9633C418.796 47.6711 418.172 47.525 417.451 47.525C416.731 47.525 416.058 47.6711 415.53 47.9633C415.002 48.2555 414.522 48.6451 414.137 49.1807C413.753 49.7164 413.465 50.3008 413.273 50.9826C413.081 51.6643 412.985 52.3947 412.985 53.1739C412.985 53.9531 413.081 54.6836 413.273 55.3653C413.465 56.0471 413.753 56.6315 414.137 57.1672C414.522 57.7028 415.002 58.0924 415.53 58.3846C416.058 58.6767 416.731 58.8229 417.451 58.8229C418.172 58.8229 418.844 58.6767 419.373 58.3846Z" fill="#9FA0A2"/>
<path d="M427.296 46.5042V48.5008H427.344C427.776 47.819 428.305 47.2834 428.929 46.8451C429.553 46.4068 430.37 46.212 431.33 46.212C432.147 46.212 432.867 46.4068 433.492 46.7964C434.116 47.186 434.548 47.819 434.836 48.5982H434.885C435.317 47.819 435.893 47.2347 436.614 46.7964C437.334 46.3581 438.151 46.1633 439.063 46.1633C439.639 46.1633 440.12 46.2607 440.6 46.4555C441.08 46.6503 441.513 46.8938 441.849 47.2347C442.185 47.5756 442.473 48.0138 442.665 48.5495C442.857 49.0852 442.953 49.6695 442.953 50.3026V59.7986H441.416V50.4974C441.416 49.5235 441.176 48.793 440.648 48.306C440.12 47.819 439.447 47.6243 438.679 47.6243C438.199 47.6243 437.718 47.7217 437.334 47.8677C436.902 48.0625 436.518 48.306 436.229 48.5982C435.941 48.8904 435.653 49.3287 435.461 49.7669C435.269 50.2539 435.173 50.7409 435.173 51.3253V59.7986H433.588V50.4974C433.588 49.5235 433.348 48.793 432.819 48.306C432.339 47.819 431.715 47.6243 430.946 47.6243C430.466 47.6243 430.034 47.7217 429.601 47.9164C429.169 48.1112 428.785 48.3547 428.401 48.6956C428.064 49.0365 427.776 49.4261 427.584 49.913C427.392 50.3513 427.296 50.887 427.296 51.4226V59.7986H425.711V46.5042H427.296Z" fill="#9FA0A2"/>
<path d="M273.409 53.2705L279.557 42.3624C279.701 42.1189 279.701 41.8754 279.557 41.6319C279.413 41.4371 279.173 41.291 278.932 41.291H266.253C266.013 41.291 265.772 41.4371 265.628 41.6319L259.096 52.881C258.952 53.1245 258.952 53.4167 259.096 53.6115L265.628 64.8605C265.772 65.104 266.013 65.2015 266.253 65.2015H278.932C279.173 65.2015 279.413 65.0554 279.557 64.8605C279.701 64.6171 279.701 64.3736 279.557 64.1301L273.409 53.2705ZM272.593 51.8096L267.501 42.7519H277.732L272.593 51.8096ZM266.205 43.4824L271.728 53.2705L266.205 63.0588L260.537 53.2705L266.205 43.4824ZM267.501 63.7405L272.593 54.6829L277.684 63.7405H267.501Z" fill="#9FA0A2"/>
<path d="M610.876 46.0003C608.462 43.8879 605.549 42.8555 602.181 42.8555C598.859 42.8555 595.946 43.8896 593.53 46.0003C591.117 48.0668 589.891 50.9432 589.891 54.628C589.891 58.3126 591.117 61.1875 593.53 63.2998C595.944 65.3664 598.859 66.4004 602.181 66.4004C605.549 66.4004 608.462 65.3664 610.876 63.2998C613.335 61.1875 614.562 58.3126 614.562 54.628C614.562 50.9432 613.334 48.0668 610.876 46.0003ZM597.631 59.3451C596.358 58.1327 595.717 56.5587 595.717 54.628C595.717 52.6956 596.353 51.1232 597.631 49.9549C598.903 48.7425 600.408 48.1584 602.179 48.1584C603.952 48.1584 605.501 48.7425 606.776 49.9549C608.093 51.1232 608.734 52.6956 608.734 54.628C608.734 56.5603 608.098 58.1327 606.776 59.3451C605.503 60.5133 603.953 61.0974 602.179 61.0974C600.408 61.0974 598.907 60.5133 597.631 59.3451Z" fill="#9FA0A2"/>
<path d="M623.173 65.7689V34.936H617.438V65.7689H623.173Z" fill="#9FA0A2"/>
<path d="M641.685 43.4858V55.7881C641.685 58.7528 640.062 60.7175 636.971 60.7175C633.83 60.7175 632.25 58.7546 632.25 55.7881V43.4858H626.504V56.7322C626.504 61.8637 629.781 66.4008 636.971 66.4008H637.016C644.162 66.4008 647.434 61.7635 647.434 56.7322V43.4858H641.685Z" fill="#9FA0A2"/>
<path d="M583.789 43.4858L578.054 58.583L572.318 43.4858H566.219L575.371 65.7725H580.744L589.894 43.4858H583.789Z" fill="#9FA0A2"/>
<path d="M566.247 53.998C566.247 50.7632 565.201 48.1125 563.151 46.0003C561.102 43.8879 558.465 42.8555 555.233 42.8555C551.911 42.8555 549.087 43.9796 546.764 46.1802C544.487 48.3826 543.352 51.1673 543.352 54.628C543.352 58.0885 544.489 60.9192 546.72 63.1199C548.998 65.3222 551.729 66.4004 554.96 66.4004C559.924 66.4004 563.428 64.2439 565.563 59.8851L561.286 57.4585C559.877 60.1992 557.826 61.5474 555.051 61.5474C551.638 61.5474 549.224 59.391 548.86 55.9762H566.245V53.998H566.247ZM555.047 47.1685C558.278 47.1685 560.42 48.965 560.965 51.8415H548.857C549.724 49.1909 552.088 47.1685 555.047 47.1685Z" fill="#9FA0A2"/>
<path d="M543.353 65.7698L535.658 52.4708C540.526 50.7185 542.939 47.6637 542.939 43.2148C542.944 37.7777 538.571 34.3171 531.608 34.3171H518V65.7698H524.008V53.0091H529.108L536.481 65.7698H543.353ZM531.608 39.5284C535.158 39.5284 536.934 40.9208 536.934 43.6614C536.934 46.402 535.156 47.7944 531.608 47.7944H524.008V39.5284H531.608Z" fill="#9FA0A2"/>
<path d="M657.158 66.3979C653.466 66.3979 650.473 63.4416 650.473 59.7925V37.4617H656.207V43.4914H661.125V48.0744H656.207V59.4291C656.207 60.4989 657.085 61.3649 658.17 61.3649H661.125V66.3979H657.158Z" fill="#9FA0A2"/>
</svg>
