<svg width="155" height="45" viewBox="0 0 155 45" fill="none" xmlns="http://www.w3.org/2000/svg">
<path d="M103.412 13.667C100.714 13.667 97.4771 14.6397 94.3683 17.9674C91.2594 14.6397 87.9964 13.667 85.3243 13.667C85.3243 13.667 74.9699 12.8991 74.9699 24.9554V44.4606H82.4723V26.0561C82.4723 20.6551 86.0951 20.5527 86.8145 20.7063C86.8145 20.7063 88.1248 20.7831 89.3067 22.0117C89.3067 22.0117 86.9172 25.1346 86.7374 29.0254C86.7374 29.0254 86.1978 39.162 94.3683 39.162C102.539 39.162 101.999 29.0254 101.999 29.0254C101.819 25.109 99.4298 22.0117 99.4298 22.0117C100.612 20.7831 101.922 20.7063 101.922 20.7063C102.616 20.5527 106.264 20.6551 106.264 26.0561V44.4606H113.767V24.9554C113.741 12.8735 103.412 13.667 103.412 13.667ZM94.3426 33.6585C92.7239 33.6585 92.21 31.6363 92.1843 29.7165C92.133 26.3889 94.3169 23.9827 94.3426 23.9315C94.394 23.9827 96.5522 26.3889 96.5008 29.7165C96.5008 31.6363 95.9612 33.6585 94.3426 33.6585ZM70.7305 14.179H63.2281V44.4862H70.7305V14.179ZM66.9793 1.02192C64.4871 1.02192 62.4059 3.04411 62.4059 5.50145C62.4059 7.9844 64.4614 10.0578 66.9793 10.0578C69.4715 10.0578 71.4756 8.00999 71.4756 5.50145C71.5013 3.0953 69.4458 1.02192 66.9793 1.02192ZM39.4619 16.2011V0.817139H32.0108V44.4606H39.4619V22.6005C51.7946 16.6363 51.3321 26.0817 51.3321 26.0817V44.4606H58.7832V26.1073C58.7832 8.34276 43.2131 14.2045 39.4619 16.2011ZM124.07 30.7916C128.078 32.1995 133.139 32.0715 133.139 32.0715C145.164 31.9947 144.83 23.2916 144.83 23.2916C144.521 13.4878 132.959 13.667 132.959 13.667C123.376 13.667 116.67 20.2199 116.67 29.563C116.67 38.9316 123.247 44.9726 133.396 44.9726C137.713 44.9726 141.824 43.7951 144.701 41.6961V34.4776C141.695 37.063 138.098 38.4452 134.27 38.4452C134.296 38.4452 123.864 38.9572 124.07 30.7916ZM124.995 24.4179C126.254 21.2438 128.874 19.58 132.6 19.58C135.657 19.58 137.43 20.8599 137.43 22.9076C137.43 25.7745 134.193 26.0305 131.161 26.0305C128.181 26.0305 126.331 25.6978 125.508 25.493L124.712 25.3138L124.995 24.4179ZM16.6206 44.9726C21.9134 44.9726 25.6389 42.976 27.8742 41.3121V34.0425C24.5855 36.6278 20.7315 38.1125 17.3143 38.1125C11.8417 38.1125 8.01339 34.3497 8.01339 28.9486C8.01339 23.8292 11.5077 20.2455 16.4921 20.2455C18.1108 20.2455 19.5239 20.6551 21.0142 21.0646C22.5557 21.4998 24.1487 21.9861 26.0757 21.9861C26.6667 21.9861 27.2576 21.9349 27.8742 21.8582V14.9469C27.3604 14.9981 26.8979 15.0493 26.384 15.0493C24.6626 15.0493 23.0953 14.7165 21.4766 14.3837C19.7552 14.0254 17.9824 13.6414 15.9012 13.6414C11.7389 13.6414 7.88492 15.1005 5.05867 17.8138C2.05256 20.6807 0.433888 24.6483 0.433888 29.307C0.382502 38.522 7.06274 44.9726 16.6206 44.9726ZM153.694 17.3786C153.694 16.9179 153.617 16.5083 153.463 16.1244C153.309 15.7404 153.103 15.4076 152.846 15.1517C152.589 14.8701 152.281 14.6653 151.947 14.5117C151.587 14.3581 151.227 14.2813 150.816 14.2813C150.405 14.2813 150.02 14.3581 149.686 14.5117C149.326 14.6653 149.043 14.8701 148.786 15.1517C148.53 15.4332 148.324 15.7404 148.17 16.1244C148.016 16.5083 147.939 16.9179 147.939 17.3786C147.939 17.8138 148.016 18.1977 148.144 18.5817C148.273 18.9657 148.478 19.2728 148.709 19.5544C148.966 19.836 149.275 20.0663 149.609 20.2199C149.968 20.3735 150.354 20.4503 150.816 20.4503C151.227 20.4503 151.587 20.3735 151.947 20.2199C152.306 20.0663 152.589 19.8616 152.846 19.58C153.103 19.2984 153.309 18.9913 153.463 18.6073C153.617 18.2489 153.694 17.8394 153.694 17.3786ZM154.49 17.3786C154.49 17.9418 154.388 18.4537 154.182 18.9145C153.977 19.3752 153.72 19.7592 153.386 20.0919C153.052 20.4247 152.666 20.6807 152.204 20.8599C151.767 21.039 151.304 21.1414 150.816 21.1414C150.277 21.1414 149.789 21.039 149.326 20.8599C148.889 20.6551 148.504 20.3991 148.17 20.0663C147.862 19.7336 147.605 19.3496 147.399 18.8889C147.219 18.4281 147.116 17.9418 147.116 17.4042C147.116 16.8411 147.219 16.3291 147.399 15.8684C147.605 15.4076 147.862 15.0237 148.196 14.6909C148.53 14.3581 148.941 14.1022 149.377 13.923C149.814 13.7438 150.302 13.6414 150.791 13.6414C151.279 13.6414 151.741 13.7438 152.178 13.923C152.615 14.1022 153.026 14.3581 153.36 14.6909C153.694 15.0237 153.977 15.4076 154.156 15.8684C154.388 16.3035 154.49 16.8155 154.49 17.3786ZM150.842 17.1738C150.97 17.1738 151.099 17.1738 151.202 17.1738C151.33 17.1482 151.433 17.1226 151.51 17.0715C151.587 17.0203 151.664 16.9691 151.716 16.8923C151.767 16.8155 151.793 16.6875 151.793 16.5339C151.793 16.4059 151.767 16.3035 151.69 16.2267C151.638 16.1499 151.561 16.0988 151.484 16.0476C151.407 15.9964 151.304 15.9964 151.202 15.9708C151.099 15.9452 150.996 15.9452 150.893 15.9452H150.071V17.1482H150.842V17.1738ZM150.071 19.5032H149.403V15.382H150.97C151.459 15.382 151.844 15.4844 152.101 15.6636C152.358 15.8428 152.486 16.15 152.486 16.5595C152.486 16.9435 152.384 17.1994 152.178 17.3786C151.972 17.5578 151.716 17.6602 151.407 17.6858L152.563 19.5032H151.793L150.713 17.737H150.071V19.5032ZM151.921 14.5885C151.587 14.4349 151.227 14.3581 150.816 14.3581C150.405 14.3581 150.045 14.4349 149.711 14.5885C149.377 14.7421 149.069 14.9469 148.812 15.2028C148.555 15.4588 148.35 15.7916 148.221 16.1499C148.067 16.5083 148.016 16.9179 148.016 17.3786C148.016 17.7882 148.093 18.1977 148.221 18.5561C148.35 18.9145 148.53 19.2472 148.786 19.5032C149.043 19.7848 149.326 19.9896 149.686 20.1431C150.02 20.2967 150.431 20.3735 150.868 20.3735C151.253 20.3735 151.613 20.2967 151.972 20.1687C152.306 20.0151 152.615 19.8104 152.872 19.5544C153.129 19.2984 153.334 18.9657 153.463 18.6073C153.617 18.2489 153.668 17.8394 153.668 17.3786C153.668 16.9435 153.591 16.5339 153.463 16.1499C153.309 15.766 153.129 15.4588 152.872 15.2028C152.538 14.9213 152.255 14.7165 151.921 14.5885ZM151.947 20.2455C151.587 20.3991 151.227 20.4759 150.816 20.4759C150.379 20.4759 149.968 20.3991 149.609 20.2455C149.249 20.0919 148.941 19.8616 148.709 19.58C148.452 19.2984 148.273 18.9657 148.144 18.6073C148.016 18.2233 147.939 17.8394 147.939 17.4042C147.939 16.9435 148.016 16.5339 148.17 16.1499C148.324 15.766 148.53 15.4332 148.786 15.1772C149.043 14.8957 149.352 14.6909 149.686 14.5373C150.045 14.3837 150.431 14.3069 150.816 14.3069C151.227 14.3069 151.587 14.3837 151.947 14.5373C152.306 14.6909 152.589 14.8957 152.846 15.1772C153.103 15.4588 153.309 15.766 153.463 16.1499C153.617 16.5339 153.694 16.9435 153.694 17.4042C153.694 17.865 153.617 18.2745 153.463 18.6585C153.309 19.0424 153.103 19.3496 152.846 19.6312C152.589 19.8616 152.281 20.0919 151.947 20.2455ZM149.3 20.8855C148.838 20.6807 148.452 20.4247 148.118 20.0919C147.784 19.7592 147.528 19.3496 147.348 18.8889C147.168 18.4281 147.065 17.9162 147.065 17.3786C147.065 16.8155 147.168 16.3035 147.373 15.8172C147.579 15.3564 147.862 14.9469 148.196 14.6141C148.555 14.2813 148.941 14.0254 149.403 13.8462C149.866 13.667 150.328 13.5646 150.842 13.5646C151.33 13.5646 151.818 13.667 152.255 13.8462C152.718 14.0254 153.103 14.2813 153.437 14.6141C153.797 14.9469 154.054 15.3564 154.259 15.8172C154.465 16.2779 154.567 16.8155 154.567 17.3786C154.567 17.9418 154.465 18.4537 154.259 18.9401C154.054 19.4008 153.797 19.8104 153.437 20.1431C153.103 20.4759 152.692 20.7319 152.255 20.9111C151.818 21.0902 151.33 21.1926 150.842 21.1926C150.277 21.167 149.763 21.0646 149.3 20.8855ZM152.204 20.8343C152.64 20.6551 153.052 20.3991 153.386 20.0663C153.72 19.7336 154.002 19.3496 154.182 18.8889C154.388 18.4281 154.49 17.9162 154.49 17.353C154.49 16.7899 154.388 16.2779 154.182 15.8172C153.977 15.3564 153.72 14.9725 153.386 14.6397C153.052 14.3069 152.666 14.051 152.204 13.8718C151.767 13.6926 151.304 13.5902 150.816 13.5902C150.328 13.5902 149.84 13.6926 149.403 13.8718C148.966 14.051 148.555 14.3069 148.221 14.6397C147.887 14.9725 147.63 15.3564 147.425 15.8172C147.219 16.2779 147.142 16.7899 147.142 17.353C147.142 17.8906 147.245 18.3769 147.425 18.8377C147.605 19.2984 147.862 19.6824 148.196 20.0151C148.53 20.3479 148.915 20.6039 149.352 20.8087C149.814 20.9878 150.302 21.0902 150.842 21.0902C151.304 21.0902 151.767 21.0134 152.204 20.8343ZM151.664 16.2523C151.613 16.1755 151.561 16.1499 151.484 16.0988C151.407 16.0732 151.33 16.0476 151.227 16.0476C151.125 16.022 151.022 16.022 150.919 16.022H150.174V17.097H150.868C150.996 17.097 151.099 17.097 151.227 17.097C151.33 17.097 151.433 17.0459 151.51 17.0203C151.587 16.9691 151.638 16.9179 151.69 16.8667C151.741 16.7899 151.767 16.6875 151.767 16.5339C151.741 16.4059 151.716 16.3035 151.664 16.2523ZM151.716 16.8667C151.664 16.9435 151.587 17.0203 151.51 17.0459C151.433 17.0971 151.33 17.1226 151.202 17.1482C151.099 17.1482 150.97 17.1482 150.842 17.1482H150.071V15.9452H150.893C150.996 15.9452 151.099 15.9452 151.202 15.9708C151.304 15.9708 151.407 15.9964 151.484 16.0476C151.561 16.0988 151.638 16.1499 151.69 16.2267C151.741 16.3035 151.793 16.4059 151.793 16.5339C151.793 16.6619 151.767 16.7899 151.716 16.8667ZM150.148 19.58H149.326V15.3052H150.97C151.484 15.3052 151.87 15.4076 152.152 15.5868C152.435 15.7916 152.563 16.1244 152.563 16.5595C152.563 16.9435 152.461 17.2506 152.229 17.4298C152.024 17.5834 151.793 17.6858 151.536 17.737L152.718 19.58H151.793L150.713 17.8138H150.174V19.58H150.148ZM150.071 17.737H150.713L151.793 19.5032H152.563L151.407 17.6858C151.433 17.6858 151.459 17.6858 151.484 17.6858C151.767 17.6346 151.998 17.5322 152.178 17.3786C152.384 17.1994 152.486 16.9435 152.486 16.5595C152.486 16.15 152.358 15.8428 152.101 15.6636C151.844 15.4844 151.459 15.382 150.97 15.382H149.403V19.5032H150.071V17.737Z" fill="#9FA0A2"/>
</svg>
