<svg width="136" height="36" viewBox="0 0 136 36" fill="none" xmlns="http://www.w3.org/2000/svg">
<path d="M0.759888 8.3163H3.86591C4.21833 8.31533 4.56913 8.36395 4.9079 8.46075C5.23629 8.55441 5.54847 8.69716 5.83386 8.88415C6.11666 9.06979 6.373 9.29265 6.59589 9.54668C6.81784 9.79801 6.9972 10.0837 7.12689 10.3925C7.87289 12.1991 8.62524 13.9897 9.38391 15.7644C10.1426 17.5391 10.9012 19.3297 11.6599 21.1363C11.79 21.4307 11.8808 21.7409 11.9299 22.0588C11.9685 22.3411 11.9942 22.5908 12.0069 22.808C12.0405 22.3831 12.1247 21.9637 12.2579 21.5587C12.4176 21.0622 12.6042 20.5746 12.8169 20.0982L16.9259 10.3726C17.0412 10.0838 17.2109 9.81969 17.4259 9.59451C17.661 9.34186 17.9267 9.11931 18.2169 8.93198C18.5145 8.73882 18.8353 8.58386 19.1719 8.47073C19.4977 8.35776 19.8399 8.29918 20.1849 8.29736H23.2909L21.0909 13.5059L23.5409 19.3101C23.7982 19.9125 24.0489 20.5053 24.2929 21.0884C24.5219 21.6091 24.6589 22.1652 24.6979 22.7323C24.7105 22.63 24.7266 22.5114 24.7459 22.3766C24.7652 22.2418 24.8005 22.0721 24.8519 21.8675C24.9166 21.6203 24.994 21.3766 25.0839 21.1373C25.1865 20.8557 25.3279 20.5096 25.5079 20.0992L29.6219 10.3736C29.7363 10.0862 29.9031 9.8224 30.1139 9.59551C30.3439 9.34144 30.6065 9.11867 30.8949 8.93298C31.1925 8.73985 31.5134 8.58486 31.8499 8.4717C32.1757 8.35873 32.518 8.30018 32.8629 8.29837H35.9689L27.4419 28.4987H21.9629L19.0109 21.0416C18.9082 20.7726 18.8182 20.4973 18.7409 20.2157C18.6637 19.9339 18.6246 19.6431 18.6249 19.351C18.6226 19.07 18.6683 18.7908 18.7599 18.525C18.5152 19.2171 18.0619 20.3894 17.3999 22.0419C16.7379 23.6944 15.8536 25.847 14.7469 28.4997H9.26788L0.759888 8.3163Z" fill="white"/>
<path d="M37.3189 8.31363H41.4449C41.5116 8.31363 41.6083 8.48963 41.7349 8.84165C41.8961 9.3333 42.0122 9.83849 42.0819 10.351C42.2138 9.9565 42.4627 9.61116 42.7959 9.3607C43.1775 9.05995 43.5997 8.81412 44.0499 8.63043C44.5258 8.43196 45.0202 8.28079 45.5259 8.17912C45.9731 8.08343 46.4286 8.03204 46.8859 8.0257H46.9629C48.3381 8.01466 49.6998 8.29625 50.9569 8.85162C52.1656 9.38464 53.2596 10.1451 54.1789 11.0912C56.0751 13.0609 57.1314 15.686 57.126 18.4151C57.1206 21.1443 56.0539 23.7652 54.1499 25.7274C53.2203 26.6695 52.1163 27.4233 50.8989 27.9471C49.6332 28.4956 48.2662 28.7739 46.8859 28.764C46.0857 28.7615 45.291 28.6317 44.5319 28.3795C43.7376 28.1178 43.0077 27.6921 42.3899 27.1301V35.0106H37.3159L37.3189 8.31363ZM46.8689 13.0419C45.9866 13.0377 45.1164 13.2454 44.3319 13.6477C43.5628 14.0326 42.8978 14.596 42.3929 15.2905V21.4793C42.9077 22.1811 43.5812 22.7522 44.3589 23.1463C45.1365 23.5405 45.9964 23.7465 46.8689 23.7478C47.5793 23.755 48.2831 23.6106 48.9329 23.3244C49.5506 23.0518 50.108 22.66 50.5729 22.1717C51.0403 21.6781 51.4101 21.1012 51.6629 20.4711C52.1902 19.1337 52.1902 17.6471 51.6629 16.3097C51.4131 15.6781 51.043 15.1006 50.5729 14.609C50.1057 14.1257 49.5487 13.7372 48.9329 13.4653C48.2828 13.1803 47.5791 13.037 46.8689 13.0449V13.0419Z" fill="white"/>
<path d="M64.2509 8.31361C64.3203 8.46166 64.3973 8.60598 64.4819 8.74598C64.6184 9.00303 64.6849 9.29124 64.6749 9.58187V10.7345C64.7959 10.3932 64.9941 10.084 65.254 9.83094C65.5325 9.55699 65.8474 9.32234 66.1899 9.13354C66.5563 8.92955 66.9406 8.75917 67.338 8.62446C67.7336 8.4882 68.1361 8.37279 68.5439 8.27874C68.9096 8.19364 69.2798 8.12945 69.6529 8.08646C69.9473 8.05124 70.2434 8.03194 70.5399 8.02867C71.9109 8.0171 73.2688 8.29556 74.5239 8.84561C75.7233 9.3703 76.8055 10.1283 77.707 11.0753C78.6106 12.0349 79.3231 13.1566 79.8069 14.3809C80.8229 16.9732 80.8229 19.8514 79.8069 22.4437C79.3217 23.6646 78.6092 24.7831 77.707 25.7403C76.8056 26.6874 75.7233 27.4454 74.5239 27.97C72.8351 28.7038 70.9735 28.9502 69.1509 28.6813C68.6425 28.6042 68.1445 28.4705 67.666 28.2828C67.1298 28.0723 66.621 27.798 66.1509 27.4659C65.6004 27.0743 65.104 26.612 64.6749 26.091V35.2786H61.53V8.31361H64.2509ZM70.5399 25.7085C71.503 25.7199 72.4576 25.5266 73.3399 25.1416C74.1691 24.7776 74.9141 24.2476 75.5289 23.5844C76.1502 22.9078 76.6351 22.1183 76.957 21.2591C77.6383 19.4168 77.6383 17.3929 76.957 15.5505C76.635 14.6914 76.1501 13.9019 75.5289 13.2252C74.914 12.5623 74.1689 12.0323 73.3399 11.6681C72.4576 11.2831 71.503 11.0899 70.5399 11.1012C69.4482 11.101 68.3681 11.3234 67.3659 11.7547C66.3572 12.1814 65.4427 12.8019 64.6749 13.5809V22.7296C65.0202 23.2006 65.4234 23.6267 65.8749 23.9979C66.3157 24.3634 66.798 24.676 67.312 24.9294C67.8197 25.1793 68.3535 25.3728 68.9039 25.5062C69.439 25.6395 69.9882 25.7084 70.5399 25.7115V25.7085Z" fill="white"/>
<path d="M83.2528 18.4075C83.245 17.0233 83.5242 15.6524 84.0728 14.3806C85.1348 11.8879 87.1268 9.90337 89.6289 8.84533C90.9107 8.30675 92.2876 8.0293 93.6788 8.0293C95.0699 8.0293 96.447 8.30675 97.7288 8.84533C100.231 9.90319 102.223 11.8878 103.285 14.3806C103.826 15.6576 104.104 17.0295 104.104 18.4155C104.104 19.8015 103.826 21.1734 103.285 22.4504C102.223 24.9433 100.231 26.928 97.7288 27.9857C96.4471 28.5243 95.0699 28.8019 93.6788 28.8019C92.2876 28.8019 90.9106 28.5243 89.6289 27.9857C87.1267 26.9278 85.1346 24.9432 84.0728 22.4504C83.5233 21.1733 83.2441 19.797 83.2528 18.4075ZM86.3398 18.4075C86.3334 19.3885 86.5305 20.3603 86.9188 21.2618C87.2894 22.1298 87.8233 22.9191 88.4918 23.5871C89.1587 24.2507 89.9483 24.7795 90.8168 25.1443C91.7235 25.5186 92.6954 25.7113 93.6768 25.7113C94.6583 25.7113 95.6301 25.5186 96.5368 25.1443C98.1017 24.4915 99.3908 23.3181 100.185 21.8243C100.978 20.3305 101.227 18.6087 100.889 16.9524C100.551 15.2961 99.6472 13.8079 98.3311 12.7414C97.015 11.6749 95.3683 11.0962 93.6718 11.1039C92.6913 11.0968 91.7197 11.2897 90.8168 11.6707C89.9484 12.0358 89.1589 12.5646 88.4918 13.2279C87.8234 13.896 87.2895 14.6853 86.9188 15.5532C86.5305 16.4548 86.3335 17.4265 86.3398 18.4075Z" fill="white"/>
<path d="M106.906 18.4075C106.898 17.0233 107.177 15.6524 107.726 14.3806C108.788 11.8879 110.78 9.90337 113.282 8.84533C114.564 8.30675 115.941 8.0293 117.332 8.0293C118.723 8.0293 120.1 8.30675 121.382 8.84533C123.884 9.90319 125.876 11.8878 126.938 14.3806C127.479 15.6576 127.757 17.0296 127.757 18.4155C127.757 19.8015 127.479 21.1734 126.938 22.4504C125.876 24.9433 123.884 26.928 121.382 27.9857C120.1 28.5243 118.723 28.8019 117.332 28.8019C115.941 28.8019 114.564 28.5243 113.282 27.9857C110.78 26.9278 108.788 24.9432 107.726 22.4504C107.176 21.1733 106.897 19.797 106.906 18.4075ZM109.993 18.4075C109.986 19.3885 110.184 20.3603 110.572 21.2618C110.942 22.1297 111.476 22.919 112.144 23.5871C112.811 24.2506 113.6 24.7794 114.469 25.1443C115.372 25.5255 116.343 25.7184 117.324 25.7112C118.53 25.7109 119.716 25.4145 120.78 24.8483C121.843 24.282 122.75 23.4634 123.42 22.4648C124.09 21.4662 124.503 20.3185 124.621 19.1231C124.74 17.9278 124.561 16.7217 124.101 15.6117C123.64 14.5016 122.912 13.5218 121.981 12.7589C121.049 11.9961 119.944 11.4737 118.761 11.238C117.579 11.0023 116.357 11.0605 115.203 11.4076C114.048 11.7547 112.998 12.38 112.144 13.2279C111.476 13.8962 110.942 14.6854 110.572 15.5532C110.184 16.4548 109.986 17.4265 109.993 18.4075Z" fill="white"/>
<path d="M135.516 0.955078V28.4979H132.371V0.955078H135.516Z" fill="white"/>
</svg>
