<svg width="173" height="30" viewBox="0 0 173 30" fill="none" xmlns="http://www.w3.org/2000/svg">
<path d="M22.3753 12.8695C22.26 12.7525 22.1734 12.5771 22.1734 12.4016C22.1734 12.2261 22.2311 12.0507 22.3753 11.9337L27.1337 7.10867C27.3932 6.84549 27.797 6.84549 28.0565 7.10867L37.6887 16.8757C38.3808 17.6068 38.3808 18.7765 37.6598 19.5076L27.7681 29.5378C27.6528 29.6548 27.4798 29.7425 27.3067 29.7425H17.7899C17.5304 29.7425 17.2708 29.5671 17.1843 29.3331C17.0978 29.0699 17.1555 28.7775 17.3574 28.6021L27.1625 18.6595C27.2779 18.5426 27.3644 18.3671 27.3644 18.1917C27.3644 18.0162 27.3067 17.8407 27.1625 17.7238L22.3753 12.8695ZM15.8289 17.7238C15.9443 17.8407 16.0308 18.0162 16.0308 18.1917C16.0308 18.3671 15.9731 18.5426 15.8289 18.6595L11.0705 23.4846C10.811 23.7478 10.4072 23.7478 10.1477 23.4846L0.515547 13.7175C-0.176582 12.9865 -0.176582 11.8168 0.544386 11.0857L10.4361 1.05544C10.5514 0.93847 10.7245 0.850739 10.8975 0.850739H20.4431C20.7027 0.850739 20.9622 1.02619 21.0487 1.26013C21.1352 1.52332 21.0776 1.81575 20.8757 1.9912L11.0705 11.9337C10.9552 12.0507 10.8687 12.2261 10.8687 12.4016C10.8687 12.5771 10.9263 12.7525 11.0705 12.8695L15.8289 17.7238ZM49.5991 17.9285C50.5796 18.835 52.108 19.3906 53.5788 19.3906C54.617 19.3906 55.4245 18.8642 55.4245 18.1332C55.4245 15.9107 48.3878 16.7003 48.3878 11.963C48.3878 9.12642 51.0698 7.37187 53.9537 7.37187C55.8282 7.37187 57.9046 8.10293 58.8563 8.86324L57.0395 11.729C56.2897 11.1734 55.3091 10.7348 54.2421 10.7348C53.1751 10.7348 52.2522 11.1734 52.2522 11.9337C52.2522 13.8345 59.2889 13.0742 59.2889 18.1917C59.2889 21.0282 56.5492 22.7535 53.5211 22.7535C51.5024 22.7535 49.3972 22.0517 47.6669 20.7943L49.5991 17.9285ZM65.4604 17.2851C66.2679 18.4256 67.5656 19.1274 68.9787 19.0982C71.1704 19.0982 72.8142 17.4021 72.8142 15.0919C72.8142 12.9572 71.3435 11.0564 69.0652 11.0564C67.6521 11.0564 66.3255 11.729 65.4604 12.8695V17.2851ZM61.5671 7.69353H65.3162V8.86324C66.4409 7.92747 67.9117 7.37187 69.5555 7.37187C73.5064 7.37187 76.6786 10.7055 76.6786 15.0627C76.6786 17.0804 75.9865 18.8935 74.8618 20.2387C73.564 21.7593 71.5165 22.7243 69.3536 22.7243C67.8828 22.7243 66.6139 22.2856 65.4604 21.3791V29.7133H61.5671V7.69353ZM88.3006 13.1619C88.1853 11.846 87.0029 10.5886 85.4168 10.5886C83.8018 10.5886 82.4752 11.846 82.3022 13.1619H88.3006ZM91.9343 20.0924C90.5212 21.7885 88.2141 22.7243 85.9647 22.7243C81.6101 22.7243 78.3513 19.683 78.3513 15.0627C78.3513 10.9687 81.1198 7.37187 85.4168 7.37187C89.4253 7.37187 92.2804 10.7933 92.2804 14.9165C92.2804 15.2966 92.2515 15.706 92.1939 16.0277H82.1292C82.331 18.1039 83.9748 19.5076 86.0512 19.5076C87.695 19.5076 89.0216 18.5718 89.7137 17.8115L91.9343 20.0924ZM94.5298 22.4319V7.69353H98.2788V8.86324C99.4324 7.89823 100.874 7.37187 102.374 7.37187C104.393 7.37187 106.209 8.27838 107.421 9.74052C108.372 10.881 108.92 12.3724 108.92 14.9165V22.4319H105.027V14.6241C105.027 13.1619 104.71 12.4016 104.162 11.846C103.643 11.3196 102.864 11.0272 101.97 11.0272C100.326 11.0272 98.971 12.0799 98.423 12.8402V22.4026H94.5298V22.4319ZM122.244 12.8695C121.408 11.729 120.052 11.0564 118.639 11.0564C116.361 11.0564 114.89 12.9572 114.89 15.0919C114.89 17.4021 116.534 19.0982 118.725 19.0982C120.11 19.0982 121.436 18.4256 122.244 17.2851V12.8695ZM122.388 22.4319V21.2621C121.177 22.2856 119.821 22.7535 118.351 22.7535C116.188 22.7535 114.169 21.7885 112.871 20.2679C111.66 18.835 110.997 16.9927 111.026 15.0919C111.026 10.764 114.198 7.4011 118.149 7.4011C119.735 7.4011 121.119 7.86899 122.244 8.77551V0.879983H126.137V22.4611H122.388V22.4319ZM138.422 13.1619C138.307 11.846 137.125 10.5886 135.538 10.5886C133.924 10.5886 132.597 11.846 132.424 13.1619H138.422ZM142.056 20.0924C140.643 21.7885 138.336 22.7243 136.086 22.7243C131.732 22.7243 128.473 19.683 128.473 15.0627C128.473 10.9687 131.242 7.37187 135.538 7.37187C139.547 7.37187 142.402 10.7933 142.402 14.9165C142.402 15.2966 142.373 15.706 142.316 16.0277H132.251C132.453 18.1039 134.097 19.5076 136.173 19.5076C137.817 19.5076 139.143 18.5718 139.835 17.8115L142.056 20.0924ZM146.065 17.9285C147.045 18.835 148.574 19.3906 150.044 19.3906C151.083 19.3906 151.89 18.8642 151.89 18.1332C151.89 15.9107 144.853 16.7003 144.853 11.963C144.853 9.12642 147.535 7.37187 150.419 7.37187C152.294 7.37187 154.37 8.10293 155.322 8.86324L153.505 11.729C152.755 11.1734 151.775 10.7348 150.708 10.7348C149.641 10.7348 148.718 11.1734 148.718 11.9337C148.718 13.8345 155.754 13.0742 155.754 18.1917C155.754 21.0282 153.015 22.7535 149.987 22.7535C147.968 22.7535 145.863 22.0517 144.132 20.7943L146.065 17.9285ZM165.012 14.3316L173 22.4319H167.751L161.609 16.0569V22.4319H157.715V0.850739H161.609V12.4601L166.598 7.69353H172.077L165.012 14.3316Z" fill="#6000D7"/>
</svg>
